<?xml version="1.0" encoding="UTF-8"?>
<svg id="Layer_2" xmlns="http://www.w3.org/2000/svg" version="1.1" viewBox="0 0 512 512">
  <!-- Generator: Adobe Illustrator 30.1.0, SVG Export Plug-In . SVG Version: 2.1.1 Build 136)  -->
  <defs>
    <style>
      .st0 {
        fill: #fff;
      }

      .st1 {
        fill: #07da9a;
      }
    </style>
  </defs>
  <rect class="st0" width="512" height="512" rx="52.5" ry="52.5"/>
  <g>
    <path class="st1" d="M460,439.4H148.2v-229.2c-16,11.4-32,22.9-48,34.4v193.7h-45.8v-216.5c31.3-22.4,62.6-44.8,93.8-67.1v-75.4h45.8v42.6c21-15,42.1-30.1,63.1-45.2,67.5,48.3,135.3,96.8,202.8,145.1v217.7ZM194.1,394.5h220.1v-150c-52.3-37.4-104.7-74.9-157-112.3-21,15-42.1,30.1-63.1,45.2v217.1Z"/>
    <polygon class="st1" points="318 302.8 316.4 302.8 314.8 302.8 313.2 302.8 311.6 302.8 310 302.8 308.4 302.8 306.8 302.8 305.2 302.8 303.6 302.8 302 302.8 300.4 302.8 298.8 302.8 297.2 302.8 295.6 302.8 293.9 302.8 292.3 302.8 290.7 302.8 289.1 302.8 287.5 302.8 285.9 302.8 284.3 302.8 282.7 302.8 281.1 302.8 279.5 302.8 277.9 302.8 276.3 302.8 274.7 302.8 273.1 302.8 271.5 302.8 269.9 302.8 268.3 302.8 266.7 302.8 266.7 301.3 266.7 299.7 266.7 298.1 266.7 296.5 266.7 295 266.7 293.4 266.7 291.8 266.7 290.3 266.7 288.7 266.7 287.1 266.7 285.5 266.7 284 266.7 282.4 266.7 280.8 266.7 279.3 266.7 277.7 266.7 276.1 266.7 274.5 266.7 273 266.7 271.4 266.7 269.8 266.7 268.3 266.7 266.7 266.7 265.1 266.7 263.5 266.7 262 266.7 260.4 266.7 258.8 266.7 257.3 266.7 255.7 266.7 254.1 266.7 252.6 268.3 252.6 269.9 252.6 271.5 252.6 273.1 252.6 274.7 252.6 276.3 252.6 277.9 252.6 279.5 252.6 281.1 252.6 282.7 252.6 284.3 252.6 285.9 252.6 287.5 252.6 289.1 252.6 290.7 252.6 292.3 252.6 293.9 252.6 295.6 252.6 297.2 252.6 298.8 252.6 300.4 252.6 302 252.6 303.6 252.6 305.2 252.6 306.8 252.6 308.4 252.6 310 252.6 311.6 252.6 313.2 252.6 314.8 252.6 316.4 252.6 318 252.6 318 254.1 318 255.7 318 257.3 318 258.8 318 260.4 318 262 318 263.5 318 265.1 318 266.7 318 268.3 318 269.8 318 271.4 318 273 318 274.5 318 276.1 318 277.7 318 279.3 318 280.8 318 282.4 318 284 318 285.5 318 287.1 318 288.7 318 290.3 318 291.8 318 293.4 318 295 318 296.5 318 298.1 318 299.7 318 301.3 318 302.8"/>
  </g>
</svg>