<?xml version="1.0" encoding="UTF-8"?>
<svg id="Layer_2" xmlns="http://www.w3.org/2000/svg" version="1.1" viewBox="0 0 512 512">
  <!-- Generator: Adobe Illustrator 30.1.0, SVG Export Plug-In . SVG Version: 2.1.1 Build 136)  -->
  <defs>
    <style>
      .st0 {
        fill: #07da9a;
      }

      .st1 {
        display: none;
        fill: #0d263a;
      }
    </style>
  </defs>
  <g id="Layer_1-2">
    <g>
      <rect class="st1" width="512" height="512" rx="52.5" ry="52.5"/>
      <path class="st0" d="M491,468.5H134.3V206.3l-1.7,1.2-1.7,1.2-1.7,1.2-1.7,1.2-1.7,1.2-1.7,1.2-1.7,1.2-1.7,1.2-1.7,1.2-1.7,1.2-1.7,1.2-1.7,1.2-1.7,1.2-1.7,1.2-1.7,1.2-1.7,1.2-1.7,1.2-1.7,1.2-1.7,1.2-1.7,1.2-1.7,1.2-1.7,1.2-1.7,1.2-1.7,1.2-1.7,1.2-1.7,1.2-1.7,1.2-1.7,1.2-1.7,1.2-1.7,1.2-1.7,1.2-1.7,1.2v221.5H27v-247.6l3.4-2.4,3.4-2.4,3.4-2.4,3.4-2.4,3.4-2.4,3.4-2.4,3.4-2.4,3.4-2.4,3.4-2.4,3.4-2.4,3.4-2.4,3.4-2.4,3.4-2.4,3.4-2.4,3.4-2.4,3.4-2.4,3.4-2.4,3.4-2.4,3.4-2.4,3.4-2.4,3.4-2.4,3.4-2.4,3.4-2.4,3.4-2.4,3.4-2.4,3.4-2.4,3.4-2.4,3.4-2.4,3.4-2.4,3.4-2.4,3.4-2.4,3.4-2.4V56.5h52.4v48.7l2.3-1.6,2.3-1.6,2.3-1.6,2.3-1.6,2.3-1.6,2.3-1.6,2.3-1.6,2.3-1.6,2.3-1.6,2.3-1.6,2.3-1.6,2.3-1.6,2.3-1.6,2.3-1.6,2.3-1.6,2.3-1.6,2.3-1.6,2.3-1.6,2.3-1.6,2.3-1.6,2.3-1.6,2.3-1.6,2.3-1.6,2.3-1.6,2.3-1.6,2.3-1.6,2.3-1.6,2.3-1.6,2.3-1.6,2.3-1.6,2.3-1.6,2.3-1.6,7.2,5.2,7.3,5.2,7.2,5.2,7.2,5.2,7.2,5.2,7.2,5.2,7.3,5.2,7.2,5.2,7.2,5.2,7.2,5.2,7.3,5.2,7.2,5.2,7.2,5.2,7.3,5.2,7.2,5.2,7.2,5.2,7.2,5.2,7.3,5.2,7.2,5.2,7.2,5.2,7.2,5.2,7.3,5.2,7.2,5.2,7.2,5.2,7.2,5.2,7.3,5.2,7.2,5.2,7.2,5.2,7.2,5.2,7.3,5.2,7.2,5.2,7.2,5.2v249ZM186.8,417.1h251.8v-171.6l-5.6-4-5.6-4-5.6-4-5.6-4-5.6-4-5.6-4-5.6-4-5.6-4-5.6-4-5.6-4-5.6-4-5.6-4-5.6-4-5.6-4-5.6-4-5.6-4-5.6-4-5.6-4-5.6-4-5.6-4-5.6-4-5.6-4-5.6-4-5.6-4-5.6-4-5.6-4-5.6-4-5.6-4-5.6-4-5.6-4-5.6-4-5.6-4-2.3,1.6-2.3,1.6-2.3,1.6-2.3,1.6-2.3,1.6-2.3,1.6-2.3,1.6-2.3,1.6-2.3,1.6-2.3,1.6-2.3,1.6-2.3,1.6-2.3,1.6-2.3,1.6-2.3,1.6-2.3,1.6-2.3,1.6-2.3,1.6-2.3,1.6-2.3,1.6-2.3,1.6-2.3,1.6-2.3,1.6-2.3,1.6-2.3,1.6-2.3,1.6-2.3,1.6-2.3,1.6-2.3,1.6-2.3,1.6-2.3,1.6-2.3,1.6v248.4Z"/>
      <polygon class="st0" points="328.6 312.2 326.7 312.2 324.9 312.2 323.1 312.2 321.2 312.2 319.4 312.2 317.6 312.2 315.7 312.2 313.9 312.2 312.1 312.2 310.2 312.2 308.4 312.2 306.5 312.2 304.7 312.2 302.9 312.2 301 312.2 299.2 312.2 297.4 312.2 295.5 312.2 293.7 312.2 291.9 312.2 290 312.2 288.2 312.2 286.4 312.2 284.5 312.2 282.7 312.2 280.9 312.2 279 312.2 277.2 312.2 275.4 312.2 273.5 312.2 271.7 312.2 269.9 312.2 269.9 310.4 269.9 308.6 269.9 306.8 269.9 305 269.9 303.3 269.9 301.5 269.9 299.7 269.9 297.9 269.9 296.1 269.9 294.3 269.9 292.5 269.9 290.7 269.9 288.9 269.9 287.1 269.9 285.3 269.9 283.5 269.9 281.7 269.9 279.9 269.9 278.1 269.9 276.3 269.9 274.5 269.9 272.7 269.9 270.9 269.9 269.1 269.9 267.3 269.9 265.5 269.9 263.7 269.9 261.9 269.9 260.1 269.9 258.3 269.9 256.5 269.9 254.7 271.7 254.7 273.5 254.7 275.4 254.7 277.2 254.7 279 254.7 280.9 254.7 282.7 254.7 284.5 254.7 286.4 254.7 288.2 254.7 290 254.7 291.9 254.7 293.7 254.7 295.5 254.7 297.4 254.7 299.2 254.7 301 254.7 302.9 254.7 304.7 254.7 306.5 254.7 308.4 254.7 310.2 254.7 312.1 254.7 313.9 254.7 315.7 254.7 317.6 254.7 319.4 254.7 321.2 254.7 323.1 254.7 324.9 254.7 326.7 254.7 328.6 254.7 328.6 256.5 328.6 258.3 328.6 260.1 328.6 261.9 328.6 263.7 328.6 265.5 328.6 267.3 328.6 269.1 328.6 270.9 328.6 272.7 328.6 274.5 328.6 276.3 328.6 278.1 328.6 279.9 328.6 281.7 328.6 283.5 328.6 285.3 328.6 287.1 328.6 288.9 328.6 290.7 328.6 292.5 328.6 294.3 328.6 296.1 328.6 297.9 328.6 299.7 328.6 301.5 328.6 303.3 328.6 305 328.6 306.8 328.6 308.6 328.6 310.4 328.6 312.2"/>
    </g>
  </g>
</svg>