<?xml version="1.0" encoding="UTF-8"?>
<svg id="Layer_2" data-name="Layer 2" xmlns="http://www.w3.org/2000/svg" viewBox="0 0 512 457.92">
  <defs>
    <style>
      .cls-1 {
        fill: #07da9a;
      }
    </style>
  </defs>
  <g id="Layer_1-2" data-name="Layer 1">
    <g>
      <path class="cls-1" d="M512,457.92H118.45V168.58l-1.89,1.36-1.89,1.36-1.89,1.36-1.89,1.36-1.89,1.36-1.89,1.36-1.89,1.36-1.89,1.36-1.89,1.36-1.89,1.36-1.89,1.36-1.89,1.36-1.89,1.36-1.89,1.36-1.89,1.36-1.89,1.36-1.89,1.36-1.89,1.36-1.89,1.36-1.89,1.36-1.89,1.36-1.89,1.36-1.89,1.36-1.89,1.36-1.89,1.36-1.89,1.36-1.89,1.36-1.89,1.36-1.89,1.36-1.89,1.36-1.89,1.36-1.89,1.36v244.47H0V183.17l3.7-2.65,3.7-2.65,3.7-2.65,3.7-2.65,3.7-2.65,3.7-2.65,3.7-2.65,3.7-2.65,3.7-2.65,3.7-2.65,3.7-2.65,3.7-2.65,3.7-2.65,3.7-2.65,3.7-2.65,3.7-2.65,3.7-2.65,3.7-2.65,3.7-2.65,3.7-2.65,3.7-2.65,3.7-2.65,3.7-2.65,3.7-2.65,3.7-2.65,3.7-2.65,3.7-2.65,3.7-2.65,3.7-2.65,3.7-2.65,3.7-2.65,3.7-2.65V3.29h57.84v53.74l2.49-1.78,2.49-1.78,2.49-1.78,2.49-1.78,2.49-1.78,2.49-1.78,2.49-1.78,2.49-1.78,2.49-1.78,2.49-1.78,2.49-1.78,2.49-1.78,2.49-1.78,2.49-1.78,2.49-1.78,2.49-1.78,2.49-1.78,2.49-1.78,2.49-1.78,2.49-1.78,2.49-1.78,2.49-1.78,2.49-1.78,2.49-1.78,2.49-1.78,2.49-1.78,2.49-1.78,2.49-1.78,2.49-1.78,2.49-1.78,2.49-1.78,2.49-1.78,8,5.72,8,5.72,8,5.72,8,5.72,8,5.72,8,5.72,8,5.72,8,5.72,8,5.72,8,5.72,8,5.72,8,5.72,8,5.72,8,5.72,8,5.72,8,5.72,8,5.72,8,5.72,8,5.72,8,5.72,8,5.72,8,5.72,8,5.72,8,5.72,8,5.72,8,5.72,8,5.72,8,5.72,8,5.72,8,5.72,8,5.72,8,5.72v274.75ZM176.29,401.25h277.86v-189.3l-6.19-4.43-6.19-4.43-6.19-4.43-6.19-4.43-6.19-4.43-6.19-4.43-6.19-4.43-6.19-4.43-6.19-4.43-6.19-4.43-6.19-4.43-6.19-4.43-6.19-4.43-6.19-4.43-6.19-4.43-6.19-4.43-6.19-4.43-6.19-4.43-6.19-4.43-6.19-4.43-6.19-4.43-6.19-4.43-6.19-4.43-6.19-4.43-6.19-4.43-6.19-4.43-6.19-4.43-6.19-4.43-6.19-4.43-6.19-4.43-6.19-4.43-6.19-4.43-2.49,1.78-2.49,1.78-2.49,1.78-2.49,1.78-2.49,1.78-2.49,1.78-2.49,1.78-2.49,1.78-2.49,1.78-2.49,1.78-2.49,1.78-2.49,1.78-2.49,1.78-2.49,1.78-2.49,1.78-2.49,1.78-2.49,1.78-2.49,1.78-2.49,1.78-2.49,1.78-2.49,1.78-2.49,1.78-2.49,1.78-2.49,1.78-2.49,1.78-2.49,1.78-2.49,1.78-2.49,1.78-2.49,1.78-2.49,1.78-2.49,1.78-2.49,1.78v274.06Z"/>
      <polygon class="cls-1" points="332.76 285.5 330.74 285.5 328.71 285.5 326.69 285.5 324.66 285.5 322.64 285.5 320.61 285.5 318.59 285.5 316.57 285.5 314.54 285.5 312.52 285.5 310.49 285.5 308.47 285.5 306.44 285.5 304.42 285.5 302.39 285.5 300.37 285.5 298.35 285.5 296.32 285.5 294.3 285.5 292.27 285.5 290.25 285.5 288.22 285.5 286.2 285.5 284.17 285.5 282.15 285.5 280.13 285.5 278.1 285.5 276.08 285.5 274.05 285.5 272.03 285.5 270 285.5 267.98 285.5 267.98 283.52 267.98 281.53 267.98 279.55 267.98 277.57 267.98 275.58 267.98 273.6 267.98 271.62 267.98 269.63 267.98 267.65 267.98 265.67 267.98 263.68 267.98 261.7 267.98 259.72 267.98 257.73 267.98 255.75 267.98 253.77 267.98 251.78 267.98 249.8 267.98 247.82 267.98 245.83 267.98 243.85 267.98 241.87 267.98 239.88 267.98 237.9 267.98 235.92 267.98 233.93 267.98 231.95 267.98 229.97 267.98 227.98 267.98 226 267.98 224.02 267.98 222.03 270 222.03 272.03 222.03 274.05 222.03 276.08 222.03 278.1 222.03 280.13 222.03 282.15 222.03 284.17 222.03 286.2 222.03 288.22 222.03 290.25 222.03 292.27 222.03 294.3 222.03 296.32 222.03 298.35 222.03 300.37 222.03 302.39 222.03 304.42 222.03 306.44 222.03 308.47 222.03 310.49 222.03 312.52 222.03 314.54 222.03 316.57 222.03 318.59 222.03 320.61 222.03 322.64 222.03 324.66 222.03 326.69 222.03 328.71 222.03 330.74 222.03 332.76 222.03 332.76 224.02 332.76 226 332.76 227.98 332.76 229.97 332.76 231.95 332.76 233.93 332.76 235.92 332.76 237.9 332.76 239.88 332.76 241.87 332.76 243.85 332.76 245.83 332.76 247.82 332.76 249.8 332.76 251.78 332.76 253.77 332.76 255.75 332.76 257.73 332.76 259.72 332.76 261.7 332.76 263.68 332.76 265.67 332.76 267.65 332.76 269.63 332.76 271.62 332.76 273.6 332.76 275.58 332.76 277.57 332.76 279.55 332.76 281.53 332.76 283.52 332.76 285.5"/>
    </g>
  </g>
</svg>